<?xml version="1.0" encoding="windows-1252"?>
<!-- Generator: Adobe Illustrator 17.1.0, SVG Export Plug-In . SVG Version: 6.00 Build 0)  -->
<!DOCTYPE svg PUBLIC "-//W3C//DTD SVG 1.1//EN" "http://www.w3.org/Graphics/SVG/1.1/DTD/svg11.dtd">
<svg version="1.1" id="Capa_1" xmlns="http://www.w3.org/2000/svg" xmlns:xlink="http://www.w3.org/1999/xlink" x="0px" y="0px" viewBox="0 0 203.259 203.259" style="enable-background:new 0 0 203.259 203.259;" xml:space="preserve">
<path d="M101.629,203.259c-0.53,0-13.042-0.101-18.127-8.885c-2.966-5.123-6.495-15.417-9.908-25.372  c-2.004-5.847-3.897-11.369-5.577-15.567c-1.641-4.101-3.43-8.805-5.161-13.354c-3.038-7.982-6.178-16.236-8.272-20.555  c-0.697-1.438-1.721-3.188-2.907-5.215c-4.211-7.198-10.576-18.076-10.576-30.11c0-9.155,1.566-12.05,3.733-16.057  c1.459-2.697,3.112-5.753,4.853-11.886c0.658-2.319,1.221-4.424,1.746-6.386c2.991-11.182,4.796-17.931,15.576-32.844  C78.725,0.821,97.339,0,100.952,0c0.327,0,0.556,0.006,0.678,0.011C101.75,0.006,101.98,0,102.307,0  c3.612,0,22.227,0.821,33.943,17.029c10.781,14.914,12.587,21.664,15.577,32.847c0.525,1.961,1.088,4.065,1.745,6.383  c1.74,6.133,3.394,9.189,4.853,11.886c2.167,4.007,3.733,6.902,3.733,16.057c0,12.034-6.364,22.911-10.575,30.109  c-1.187,2.028-2.211,3.779-2.908,5.217c-2.094,4.318-5.233,12.569-8.271,20.548c-1.731,4.551-3.522,9.257-5.163,13.36  c-1.681,4.199-3.574,9.723-5.578,15.57c-3.413,9.954-6.941,20.246-9.907,25.369C114.671,203.158,102.16,203.259,101.629,203.259z   M100.952,4C97.681,4,80.827,4.741,70.25,19.373C59.902,33.688,58.266,39.804,55.296,50.907c-0.53,1.98-1.098,4.104-1.762,6.444  c-1.86,6.557-3.702,9.961-5.182,12.697c-1.958,3.62-3.251,6.011-3.251,14.153c0,10.951,5.796,20.857,10.029,28.09  c1.228,2.1,2.289,3.913,3.054,5.49c2.17,4.477,5.202,12.443,8.411,20.877c1.725,4.533,3.509,9.221,5.137,13.291  c1.716,4.291,3.625,9.859,5.646,15.755c3.351,9.773,6.815,19.88,9.586,24.666c3.898,6.733,14.429,6.887,14.666,6.889  c0.236-0.002,10.767-0.155,14.666-6.889c2.77-4.785,6.234-14.89,9.584-24.662c2.021-5.897,3.931-11.467,5.647-15.759  c1.629-4.072,3.414-8.762,5.14-13.297c3.209-8.431,6.239-16.395,8.409-20.871c0.765-1.578,1.826-3.392,3.055-5.492  c4.232-7.233,10.028-17.139,10.028-28.089c0-8.143-1.294-10.534-3.252-14.153c-1.479-2.736-3.321-6.141-5.182-12.697  c-0.664-2.339-1.231-4.462-1.762-6.441c-2.97-11.104-4.605-17.221-14.955-31.537C122.432,4.741,105.578,4,102.307,4  c-0.354,0-0.555,0.009-0.58,0.01c-0.064,0.003-0.134,0.003-0.198,0C101.506,4.009,101.305,4,100.952,4z M101.629,196.306  c-0.279,0-2.819-0.066-5.954-2.357c-3.487-2.548-6.187-6.844-7.6-12.095c-1.768-6.563-6.023-30.102-3.353-43.864  c2.046-10.549,9.677-14.308,16.135-14.308c0.343,0,0.605,0.012,0.771,0.023c0.165-0.011,0.428-0.023,0.771-0.023  c6.458,0,14.088,3.759,16.135,14.308c2.67,13.755-1.585,37.298-3.352,43.863c-1.414,5.251-4.113,9.547-7.602,12.095  C104.448,196.24,101.909,196.306,101.629,196.306z M100.858,127.683c-3.025,0-10.27,1.079-12.208,11.07  c-2.538,13.077,1.583,35.728,3.289,42.062c1.589,5.902,4.502,8.739,6.098,9.905c2.062,1.507,3.569,1.584,3.632,1.587  c-0.015-0.002,1.492-0.08,3.555-1.587c1.595-1.166,4.509-4.003,6.098-9.905c1.705-6.336,5.825-28.991,3.288-42.062  c-1.938-9.991-9.183-11.07-12.208-11.07c-0.331,0-0.538,0.016-0.578,0.02c-0.13,0.012-0.27,0.012-0.396-0.001  C101.396,127.698,101.189,127.683,100.858,127.683z M107.249,112.529L107.249,112.529c-0.699,0-1.369-0.09-1.938-0.261  c-1.382-0.414-2.713-1.356-3.681-2.173c-0.967,0.817-2.299,1.759-3.68,2.173c-0.569,0.171-1.24,0.261-1.939,0.261  c-2.291,0-4.374-0.915-5.57-2.448c-0.821-1.051-1.647-2.914-0.921-5.818c1.521-6.086,10.191-10.828,11.174-11.349  c0.584-0.31,1.287-0.31,1.872,0c0.983,0.521,9.653,5.263,11.175,11.349c0.726,2.904-0.101,4.767-0.922,5.818  C111.622,111.614,109.54,112.529,107.249,112.529z M103.106,105.995c0.707,0.768,2.24,2.108,3.353,2.442  c0.072,0.021,0.344,0.092,0.79,0.092l0,0c0.788,0,1.893-0.238,2.417-0.909c0.397-0.508,0.462-1.312,0.193-2.387  c-0.811-3.244-5.648-6.707-8.23-8.252c-2.649,1.576-7.413,4.989-8.229,8.252c-0.269,1.075-0.204,1.878,0.193,2.386  c0.524,0.671,1.63,0.91,2.417,0.91c0.447,0,0.717-0.071,0.79-0.092c1.115-0.334,2.649-1.677,3.355-2.445  c0.378-0.412,0.914-0.648,1.474-0.648c0.001,0,0.002,0,0.003,0C102.192,105.345,102.728,105.581,103.106,105.995L103.106,105.995z   M135.001,100.372L135.001,100.372c-3.361,0-6.934-1.426-10.332-4.123c-9.918-7.871-16.69-18.701-17.253-27.592  c-0.492-7.787-0.1-9.018,0.835-11.059l0.164-0.361c1.048-2.359,3.163-3.229,3.818-3.448c1.029-0.426,5.002-1.411,8.74,4.665  c1.126,1.829,1.943,3.604,2.733,5.319c1.636,3.552,3.182,6.908,7.413,10.875c1.661,1.557,3.304,2.945,4.893,4.288  c4.79,4.048,8.928,7.543,9.022,12.387c0.042,2.154-0.875,4.349-2.515,6.021C140.606,99.296,137.935,100.372,135.001,100.372z   M113.808,57.475c-0.131,0.085-0.14,0.062-0.332,0.116c-0.01,0.004-0.983,0.321-1.406,1.272l-0.182,0.401  c-0.579,1.266-0.93,2.03-0.479,9.141c0.486,7.692,6.814,17.623,15.747,24.711c2.684,2.13,5.396,3.256,7.845,3.256h0.001  c1.851,0,3.507-0.649,4.664-1.829c0.892-0.91,1.392-2.055,1.37-3.142c-0.059-3.034-3.389-5.848-7.604-9.41  c-1.628-1.375-3.311-2.797-5.047-4.425c-4.801-4.501-6.585-8.374-8.31-12.119c-0.775-1.682-1.507-3.271-2.507-4.896  c-1.768-2.873-3.164-3.096-3.551-3.096C113.923,57.455,113.852,57.466,113.808,57.475z M68.258,100.372  c-2.935,0-5.605-1.076-7.521-3.029c-1.64-1.672-2.556-3.866-2.514-6.02c0.095-4.844,4.232-8.339,9.022-12.387  c1.589-1.343,3.231-2.73,4.893-4.288c4.231-3.967,5.777-7.323,7.414-10.875c0.79-1.715,1.607-3.489,2.732-5.318  c3.739-6.076,7.71-5.091,8.741-4.665c0.655,0.219,2.77,1.089,3.818,3.448l0.164,0.361c0.911,1.989,1.327,3.29,0.835,11.059  c-0.563,8.891-7.334,19.722-17.253,27.592C75.19,98.946,71.618,100.372,68.258,100.372z M89.242,57.455  c-0.386,0-1.783,0.223-3.551,3.096c-0.999,1.624-1.731,3.213-2.506,4.895c-1.725,3.746-3.509,7.618-8.311,12.12  c-1.736,1.628-3.418,3.05-5.046,4.425c-4.216,3.562-7.546,6.376-7.605,9.41c-0.021,1.086,0.479,2.231,1.371,3.142  c1.157,1.18,2.814,1.83,4.665,1.83c2.447,0,5.16-1.126,7.845-3.256c8.932-7.087,15.261-17.018,15.747-24.711  c0.45-7.11,0.1-7.875-0.479-9.14l-0.182-0.402c-0.422-0.951-1.396-1.268-1.438-1.281c-0.167-0.053-0.186-0.035-0.299-0.106  C89.408,57.466,89.336,57.455,89.242,57.455z"/>
<g>
</g>
<g>
</g>
<g>
</g>
<g>
</g>
<g>
</g>
<g>
</g>
<g>
</g>
<g>
</g>
<g>
</g>
<g>
</g>
<g>
</g>
<g>
</g>
<g>
</g>
<g>
</g>
<g>
</g>
</svg>